<mxfile host="Electron" agent="Mozilla/5.0 (Windows NT 10.0; Win64; x64) AppleWebKit/537.36 (KHTML, like Gecko) draw.io/26.0.16 Chrome/132.0.6834.196 Electron/34.2.0 Safari/537.36" version="26.0.16">
  <diagram id="C5RBs43oDa-KdzZeNtuy" name="Page-1">
    <mxGraphModel dx="2147" dy="1230" grid="1" gridSize="10" guides="1" tooltips="1" connect="1" arrows="1" fold="1" page="1" pageScale="1" pageWidth="827" pageHeight="1169" math="0" shadow="0">
      <root>
        <mxCell id="WIyWlLk6GJQsqaUBKTNV-0" />
        <mxCell id="WIyWlLk6GJQsqaUBKTNV-1" parent="WIyWlLk6GJQsqaUBKTNV-0" />
        <mxCell id="reU4VRnG09UlHgy5-MGn-2" value="" style="endArrow=none;html=1;edgeStyle=orthogonalEdgeStyle;rounded=0;exitX=0.485;exitY=1.008;exitDx=0;exitDy=0;exitPerimeter=0;entryX=0.557;entryY=0.004;entryDx=0;entryDy=0;entryPerimeter=0;" parent="WIyWlLk6GJQsqaUBKTNV-1" target="reU4VRnG09UlHgy5-MGn-95" edge="1">
          <mxGeometry relative="1" as="geometry">
            <mxPoint x="227.7000000000001" y="430.0039999999999" as="sourcePoint" />
            <mxPoint x="232.3" y="534.98" as="targetPoint" />
            <Array as="points">
              <mxPoint x="228" y="455" />
              <mxPoint x="228" y="455" />
              <mxPoint x="228" y="495" />
              <mxPoint x="240" y="495" />
              <mxPoint x="240" y="539" />
              <mxPoint x="240" y="539" />
            </Array>
          </mxGeometry>
        </mxCell>
        <mxCell id="reU4VRnG09UlHgy5-MGn-3" value="" style="endArrow=none;html=1;edgeStyle=orthogonalEdgeStyle;rounded=0;entryX=0;entryY=0.438;entryDx=0;entryDy=0;entryPerimeter=0;" parent="WIyWlLk6GJQsqaUBKTNV-1" target="reU4VRnG09UlHgy5-MGn-87" edge="1">
          <mxGeometry relative="1" as="geometry">
            <mxPoint x="275" y="880" as="sourcePoint" />
            <mxPoint x="540" y="885" as="targetPoint" />
            <Array as="points">
              <mxPoint x="565" y="880" />
            </Array>
          </mxGeometry>
        </mxCell>
        <mxCell id="reU4VRnG09UlHgy5-MGn-4" value="" style="endArrow=none;html=1;edgeStyle=orthogonalEdgeStyle;rounded=0;exitX=1;exitY=0.617;exitDx=0;exitDy=0;exitPerimeter=0;entryX=0;entryY=0.222;entryDx=0;entryDy=0;entryPerimeter=0;" parent="WIyWlLk6GJQsqaUBKTNV-1" source="reU4VRnG09UlHgy5-MGn-83" target="gb8vuSNpvKbIjROX9ZK6-0" edge="1">
          <mxGeometry relative="1" as="geometry">
            <mxPoint x="320" y="924.71" as="sourcePoint" />
            <mxPoint x="560" y="1080.0588235294117" as="targetPoint" />
            <Array as="points">
              <mxPoint x="300" y="925" />
              <mxPoint x="350" y="925" />
              <mxPoint x="350" y="1080" />
            </Array>
          </mxGeometry>
        </mxCell>
        <mxCell id="reU4VRnG09UlHgy5-MGn-5" value="manages" style="text;html=1;align=center;verticalAlign=middle;resizable=0;points=[];autosize=1;strokeColor=none;fillColor=none;" parent="WIyWlLk6GJQsqaUBKTNV-1" vertex="1">
          <mxGeometry x="220" y="470" width="70" height="30" as="geometry" />
        </mxCell>
        <mxCell id="reU4VRnG09UlHgy5-MGn-6" value="1" style="text;html=1;align=center;verticalAlign=middle;resizable=0;points=[];autosize=1;strokeColor=none;fillColor=none;" parent="WIyWlLk6GJQsqaUBKTNV-1" vertex="1">
          <mxGeometry x="205" y="430" width="30" height="30" as="geometry" />
        </mxCell>
        <mxCell id="reU4VRnG09UlHgy5-MGn-7" value="handles" style="text;html=1;align=center;verticalAlign=middle;resizable=0;points=[];autosize=1;strokeColor=none;fillColor=none;" parent="WIyWlLk6GJQsqaUBKTNV-1" vertex="1">
          <mxGeometry x="165" y="720" width="70" height="30" as="geometry" />
        </mxCell>
        <mxCell id="reU4VRnG09UlHgy5-MGn-8" value="1..n" style="text;html=1;align=center;verticalAlign=middle;resizable=0;points=[];autosize=1;strokeColor=none;fillColor=none;" parent="WIyWlLk6GJQsqaUBKTNV-1" vertex="1">
          <mxGeometry x="170" y="780" width="40" height="30" as="geometry" />
        </mxCell>
        <mxCell id="reU4VRnG09UlHgy5-MGn-9" value="Supplied by" style="text;html=1;align=center;verticalAlign=middle;resizable=0;points=[];autosize=1;strokeColor=none;fillColor=none;" parent="WIyWlLk6GJQsqaUBKTNV-1" vertex="1">
          <mxGeometry x="369" y="850" width="90" height="30" as="geometry" />
        </mxCell>
        <mxCell id="reU4VRnG09UlHgy5-MGn-10" value="1" style="text;html=1;align=center;verticalAlign=middle;resizable=0;points=[];autosize=1;strokeColor=none;fillColor=none;" parent="WIyWlLk6GJQsqaUBKTNV-1" vertex="1">
          <mxGeometry x="280" y="850" width="30" height="30" as="geometry" />
        </mxCell>
        <mxCell id="reU4VRnG09UlHgy5-MGn-11" value="1" style="text;html=1;align=center;verticalAlign=middle;resizable=0;points=[];autosize=1;strokeColor=none;fillColor=none;" parent="WIyWlLk6GJQsqaUBKTNV-1" vertex="1">
          <mxGeometry x="530" y="850" width="30" height="30" as="geometry" />
        </mxCell>
        <mxCell id="reU4VRnG09UlHgy5-MGn-12" value="Contains" style="text;html=1;align=center;verticalAlign=middle;resizable=0;points=[];autosize=1;strokeColor=none;fillColor=none;" parent="WIyWlLk6GJQsqaUBKTNV-1" vertex="1">
          <mxGeometry x="360" y="1020" width="70" height="30" as="geometry" />
        </mxCell>
        <mxCell id="reU4VRnG09UlHgy5-MGn-13" value="1" style="text;html=1;align=center;verticalAlign=middle;resizable=0;points=[];autosize=1;strokeColor=none;fillColor=none;" parent="WIyWlLk6GJQsqaUBKTNV-1" vertex="1">
          <mxGeometry x="275" y="940" width="30" height="30" as="geometry" />
        </mxCell>
        <mxCell id="reU4VRnG09UlHgy5-MGn-14" value="1..n" style="text;html=1;align=center;verticalAlign=middle;resizable=0;points=[];autosize=1;strokeColor=none;fillColor=none;" parent="WIyWlLk6GJQsqaUBKTNV-1" vertex="1">
          <mxGeometry x="513.75" y="1040" width="40" height="30" as="geometry" />
        </mxCell>
        <mxCell id="reU4VRnG09UlHgy5-MGn-19" value="" style="endArrow=none;html=1;edgeStyle=orthogonalEdgeStyle;rounded=0;exitX=0.986;exitY=1.135;exitDx=0;exitDy=0;exitPerimeter=0;entryX=0.993;entryY=0.284;entryDx=0;entryDy=0;entryPerimeter=0;" parent="WIyWlLk6GJQsqaUBKTNV-1" source="reU4VRnG09UlHgy5-MGn-22" target="reU4VRnG09UlHgy5-MGn-111" edge="1">
          <mxGeometry relative="1" as="geometry">
            <mxPoint x="700.2000000000003" y="822.24" as="sourcePoint" />
            <mxPoint x="340" y="180" as="targetPoint" />
            <Array as="points">
              <mxPoint x="700" y="230" />
              <mxPoint x="340" y="230" />
            </Array>
          </mxGeometry>
        </mxCell>
        <mxCell id="reU4VRnG09UlHgy5-MGn-20" value="" style="endArrow=none;html=1;edgeStyle=orthogonalEdgeStyle;rounded=0;entryX=0.991;entryY=0.394;entryDx=0;entryDy=0;entryPerimeter=0;exitX=0.998;exitY=0.122;exitDx=0;exitDy=0;exitPerimeter=0;" parent="WIyWlLk6GJQsqaUBKTNV-1" source="gb8vuSNpvKbIjROX9ZK6-0" target="reU4VRnG09UlHgy5-MGn-111" edge="1">
          <mxGeometry relative="1" as="geometry">
            <mxPoint x="700" y="1070.0588235294117" as="sourcePoint" />
            <mxPoint x="355.96000000000004" y="199.51999999999998" as="targetPoint" />
            <Array as="points">
              <mxPoint x="764" y="1071" />
              <mxPoint x="764" y="260" />
            </Array>
          </mxGeometry>
        </mxCell>
        <mxCell id="reU4VRnG09UlHgy5-MGn-21" value="1" style="text;html=1;align=center;verticalAlign=middle;resizable=0;points=[];autosize=1;strokeColor=none;fillColor=none;" parent="WIyWlLk6GJQsqaUBKTNV-1" vertex="1">
          <mxGeometry x="339" y="200" width="30" height="30" as="geometry" />
        </mxCell>
        <mxCell id="reU4VRnG09UlHgy5-MGn-22" value="1" style="text;html=1;align=center;verticalAlign=middle;resizable=0;points=[];autosize=1;strokeColor=none;fillColor=none;" parent="WIyWlLk6GJQsqaUBKTNV-1" vertex="1">
          <mxGeometry x="670" y="720" width="30" height="30" as="geometry" />
        </mxCell>
        <mxCell id="reU4VRnG09UlHgy5-MGn-23" value="1" style="text;html=1;align=center;verticalAlign=middle;resizable=0;points=[];autosize=1;strokeColor=none;fillColor=none;" parent="WIyWlLk6GJQsqaUBKTNV-1" vertex="1">
          <mxGeometry x="339" y="260" width="30" height="30" as="geometry" />
        </mxCell>
        <mxCell id="reU4VRnG09UlHgy5-MGn-24" value="1..n" style="text;html=1;align=center;verticalAlign=middle;resizable=0;points=[];autosize=1;strokeColor=none;fillColor=none;" parent="WIyWlLk6GJQsqaUBKTNV-1" vertex="1">
          <mxGeometry x="760" y="1050" width="40" height="30" as="geometry" />
        </mxCell>
        <mxCell id="reU4VRnG09UlHgy5-MGn-25" value="Use" style="endArrow=open;endSize=12;dashed=1;html=1;rounded=0;entryX=0.005;entryY=0.157;entryDx=0;entryDy=0;entryPerimeter=0;exitX=1;exitY=0.5;exitDx=0;exitDy=0;" parent="WIyWlLk6GJQsqaUBKTNV-1" source="reU4VRnG09UlHgy5-MGn-97" target="reU4VRnG09UlHgy5-MGn-111" edge="1">
          <mxGeometry width="160" relative="1" as="geometry">
            <mxPoint x="-330" y="189.99599999999998" as="sourcePoint" />
            <mxPoint x="113.80000000000018" y="189.80000000000018" as="targetPoint" />
          </mxGeometry>
        </mxCell>
        <mxCell id="reU4VRnG09UlHgy5-MGn-26" value="1" style="text;html=1;align=center;verticalAlign=middle;resizable=0;points=[];autosize=1;strokeColor=none;fillColor=none;" parent="WIyWlLk6GJQsqaUBKTNV-1" vertex="1">
          <mxGeometry x="-430" y="220" width="30" height="30" as="geometry" />
        </mxCell>
        <mxCell id="reU4VRnG09UlHgy5-MGn-27" value="1..n" style="text;html=1;align=center;verticalAlign=middle;resizable=0;points=[];autosize=1;strokeColor=none;fillColor=none;" parent="WIyWlLk6GJQsqaUBKTNV-1" vertex="1">
          <mxGeometry x="-50" y="920" width="40" height="30" as="geometry" />
        </mxCell>
        <mxCell id="reU4VRnG09UlHgy5-MGn-28" value="&lt;p style=&quot;margin:0px;margin-top:4px;text-align:center;&quot;&gt;&lt;b&gt;&lt;font style=&quot;font-size: 11px;&quot; face=&quot;Verdana&quot;&gt;LogFishScreen&lt;/font&gt;&lt;/b&gt;&lt;/p&gt;&lt;hr size=&quot;1&quot; style=&quot;border-style:solid;&quot;&gt;&lt;div style=&quot;text-align: center; text-wrap-mode: nowrap;&quot;&gt;&lt;b style=&quot;text-align: left; text-wrap-mode: wrap; background-color: transparent; color: light-dark(rgb(0, 0, 0), rgb(255, 255, 255));&quot;&gt;&lt;font face=&quot;Verdana&quot;&gt;+ FisherManID: int&lt;/font&gt;&lt;/b&gt;&lt;/div&gt;&lt;hr size=&quot;1&quot; style=&quot;border-style:solid;&quot;&gt;&lt;pre style=&quot;text-align: center;&quot;&gt;&lt;b&gt;&lt;font style=&quot;font-size: 11px;&quot;&gt;&lt;font face=&quot;Verdana&quot;&gt;+initializeLogging() &lt;/font&gt;&lt;font style=&quot;font-family: Verdana; background-color: transparent; color: light-dark(rgb(0, 0, 0), rgb(255, 255, 255)); white-space: normal;&quot;&gt;:&lt;/font&gt;&lt;span style=&quot;font-family: Verdana; background-color: transparent; color: light-dark(rgb(0, 0, 0), rgb(255, 255, 255)); white-space: normal;&quot;&gt;void&lt;/span&gt;&lt;font face=&quot;Verdana&quot;&gt;&lt;br&gt;+ fetchFishTypes() &lt;/font&gt;&lt;font style=&quot;font-family: Verdana; background-color: transparent; color: light-dark(rgb(0, 0, 0), rgb(255, 255, 255)); white-space: normal;&quot;&gt;:&lt;/font&gt;&lt;span style=&quot;background-color: transparent; color: light-dark(rgb(0, 0, 0), rgb(255, 255, 255)); white-space: normal;&quot;&gt;&lt;font face=&quot;Verdana&quot;&gt;void&lt;/font&gt;&lt;font face=&quot;Verdana&quot;&gt;&lt;br&gt;&lt;/font&gt;&lt;/span&gt;&lt;/font&gt;&lt;/b&gt;&lt;span style=&quot;white-space: normal;&quot;&gt;&lt;font face=&quot;Verdana&quot;&gt;&lt;b&gt;+GetCurrDate():void&lt;/b&gt;&lt;/font&gt;&lt;/span&gt;&lt;b&gt;&lt;font style=&quot;font-size: 11px;&quot; face=&quot;Verdana&quot;&gt;&lt;br&gt;+  onTypeSelected(FishType type) &lt;font style=&quot;background-color: transparent; color: light-dark(rgb(0, 0, 0), rgb(255, 255, 255)); white-space: normal;&quot;&gt;:&lt;/font&gt;&lt;span style=&quot;background-color: transparent; color: light-dark(rgb(0, 0, 0), rgb(255, 255, 255)); white-space: normal;&quot;&gt;void&lt;/span&gt;&lt;br&gt;+ onDateEntered(LocalDate date) &lt;font style=&quot;background-color: transparent; color: light-dark(rgb(0, 0, 0), rgb(255, 255, 255)); white-space: normal;&quot;&gt;:&lt;/font&gt;&lt;span style=&quot;background-color: transparent; color: light-dark(rgb(0, 0, 0), rgb(255, 255, 255)); white-space: normal;&quot;&gt;void&lt;/span&gt;&lt;br&gt;+ onNameSelected(String name) &lt;font style=&quot;background-color: transparent; color: light-dark(rgb(0, 0, 0), rgb(255, 255, 255)); white-space: normal;&quot;&gt;:&lt;/font&gt;&lt;span style=&quot;background-color: transparent; color: light-dark(rgb(0, 0, 0), rgb(255, 255, 255)); white-space: normal;&quot;&gt;void&lt;/span&gt;&lt;br&gt;+  onQuantityEntered(int quantity) &lt;font style=&quot;background-color: transparent; color: light-dark(rgb(0, 0, 0), rgb(255, 255, 255)); white-space: normal;&quot;&gt;:&lt;/font&gt;&lt;span style=&quot;background-color: transparent; color: light-dark(rgb(0, 0, 0), rgb(255, 255, 255)); white-space: normal;&quot;&gt;void&lt;/span&gt;&lt;br&gt;+ onWeightEntered(double weight)&lt;font style=&quot;background-color: transparent; color: light-dark(rgb(0, 0, 0), rgb(255, 255, 255)); white-space: normal;&quot;&gt;:&lt;/font&gt;&lt;span style=&quot;background-color: transparent; color: light-dark(rgb(0, 0, 0), rgb(255, 255, 255)); white-space: normal;&quot;&gt;void&lt;/span&gt; &lt;br&gt;+&lt;font style=&quot;background-color: transparent; color: light-dark(rgb(0, 0, 0), rgb(255, 255, 255)); white-space: normal;&quot;&gt; validateAndFinish()&lt;/font&gt;&lt;font style=&quot;background-color: transparent; color: light-dark(rgb(0, 0, 0), rgb(255, 255, 255)); white-space: normal;&quot;&gt;:&lt;/font&gt;&lt;span style=&quot;background-color: transparent; color: light-dark(rgb(0, 0, 0), rgb(255, 255, 255));&quot;&gt;&lt;span style=&quot;white-space: normal;&quot;&gt;void&lt;br&gt;&lt;/span&gt;&lt;/span&gt;+&lt;font style=&quot;background-color: transparent; color: light-dark(rgb(0, 0, 0), rgb(255, 255, 255)); white-space: normal;&quot;&gt; cancelLogging()&lt;/font&gt;&lt;font style=&quot;background-color: transparent; color: light-dark(rgb(0, 0, 0), rgb(255, 255, 255)); white-space: normal;&quot;&gt;:&lt;/font&gt;&lt;span style=&quot;background-color: transparent; color: light-dark(rgb(0, 0, 0), rgb(255, 255, 255));&quot;&gt;&lt;span style=&quot;white-space: normal;&quot;&gt;void&lt;br&gt;&lt;/span&gt;&lt;/span&gt;+&lt;font style=&quot;background-color: transparent; color: light-dark(rgb(0, 0, 0), rgb(255, 255, 255)); white-space: normal;&quot;&gt; showError(String message):&lt;/font&gt;&lt;span style=&quot;background-color: transparent; color: light-dark(rgb(0, 0, 0), rgb(255, 255, 255)); white-space: normal;&quot;&gt;void&amp;nbsp;&amp;nbsp;&lt;/span&gt;&lt;/font&gt;&lt;/b&gt;&lt;/pre&gt;" style="verticalAlign=top;align=left;overflow=fill;html=1;whiteSpace=wrap;strokeColor=light-dark(#000000,#006666);fillColor=light-dark(#006666,#000000);" parent="WIyWlLk6GJQsqaUBKTNV-1" vertex="1">
          <mxGeometry x="15" y="1390" width="315" height="280" as="geometry" />
        </mxCell>
        <mxCell id="reU4VRnG09UlHgy5-MGn-29" value="&lt;p style=&quot;margin:0px;margin-top:4px;text-align:center;&quot;&gt;&lt;b&gt;&lt;font face=&quot;Verdana&quot;&gt;FishLog&lt;/font&gt;&lt;/b&gt;&lt;/p&gt;&lt;hr size=&quot;1&quot; style=&quot;border-style:solid;&quot;&gt;&lt;pre style=&quot;margin:0px;margin-left:4px;&quot;&gt;&lt;b&gt;&lt;font face=&quot;Verdana&quot;&gt;- &lt;/font&gt;&lt;/b&gt;&lt;span style=&quot;white-space: normal;&quot;&gt;&lt;b style=&quot;&quot;&gt;&lt;font face=&quot;Verdana&quot;&gt;FisherManID: int&lt;/font&gt;&lt;/b&gt;&lt;/span&gt;&lt;b&gt;&lt;font face=&quot;Verdana&quot;&gt;&lt;br&gt;&lt;span style=&quot;font-size: 11px; text-align: center; background-color: transparent; color: light-dark(rgb(0, 0, 0), rgb(255, 255, 255));&quot; class=&quot;token keyword&quot;&gt;-&lt;/span&gt;&lt;span style=&quot;text-align: center; background-color: transparent; color: light-dark(rgb(0, 0, 0), rgb(255, 255, 255));&quot;&gt;&lt;span style=&quot;font-size: 11px;&quot;&gt; catchDate: Date&lt;br&gt;&lt;/span&gt;&lt;/span&gt;&lt;span style=&quot;text-align: center; background-color: transparent; color: light-dark(rgb(0, 0, 0), rgb(255, 255, 255));&quot;&gt;-&lt;/span&gt;&lt;span style=&quot;text-align: center; background-color: transparent; color: light-dark(rgb(0, 0, 0), rgb(255, 255, 255)); font-size: 11px;&quot;&gt; fishName:String&lt;br&gt;&lt;/span&gt;&lt;/font&gt;&lt;/b&gt;&lt;b style=&quot;font-family: Helvetica; text-align: center; white-space-collapse: collapse;&quot;&gt;&lt;font face=&quot;Verdana&quot;&gt;-typeName:&amp;nbsp;&lt;span style=&quot;background-color: transparent; color: light-dark(rgb(0, 0, 0), rgb(255, 255, 255));&quot;&gt;String&lt;/span&gt;&lt;span style=&quot;background-color: transparent; color: light-dark(rgb(0, 0, 0), rgb(255, 255, 255));&quot;&gt;&amp;nbsp;&lt;/span&gt;&lt;/font&gt;&lt;/b&gt;&lt;b&gt;&lt;font face=&quot;Verdana&quot;&gt;&lt;span style=&quot;text-align: center; background-color: transparent; color: light-dark(rgb(0, 0, 0), rgb(255, 255, 255));&quot;&gt;&lt;span style=&quot;font-size: 11px;&quot;&gt;&amp;nbsp;&lt;br&gt;&lt;/span&gt;&lt;/span&gt;&lt;span style=&quot;text-align: center; background-color: transparent; color: light-dark(rgb(0, 0, 0), rgb(255, 255, 255));&quot;&gt;-&lt;/span&gt;&lt;span style=&quot;text-align: center; background-color: transparent; color: light-dark(rgb(0, 0, 0), rgb(255, 255, 255)); font-size: 11px;&quot;&gt;&amp;nbsp;quantity:int&lt;/span&gt;&lt;font style=&quot;text-align: center; background-color: transparent; color: light-dark(rgb(0, 0, 0), rgb(255, 255, 255)); font-size: 11px;&quot;&gt;&amp;nbsp;&lt;br&gt;&lt;/font&gt;&lt;span style=&quot;text-align: center; background-color: transparent; color: light-dark(rgb(0, 0, 0), rgb(255, 255, 255)); font-size: 11px;&quot;&gt;- isValid&lt;/span&gt;&lt;font style=&quot;text-align: center; background-color: transparent; color: light-dark(rgb(0, 0, 0), rgb(255, 255, 255)); font-size: 11px;&quot;&gt;:&lt;/font&gt;&lt;span style=&quot;text-align: center; background-color: transparent; color: light-dark(rgb(0, 0, 0), rgb(255, 255, 255));&quot;&gt;&lt;span style=&quot;font-size: 11px;&quot;&gt;boolean&lt;br&gt;&lt;/span&gt;&lt;/span&gt;&lt;span style=&quot;text-align: center; background-color: transparent; color: light-dark(rgb(0, 0, 0), rgb(255, 255, 255));&quot;&gt;- weight:double&lt;/span&gt;&lt;/font&gt;&lt;/b&gt;&lt;/pre&gt;&lt;hr size=&quot;1&quot; style=&quot;border-style:solid;&quot;&gt;&lt;p style=&quot;margin:0px;margin-left:4px;&quot;&gt;&lt;b style=&quot;&quot;&gt;&lt;font face=&quot;Verdana&quot;&gt;+ validateWeight(): boolean&lt;br&gt;+ calculateTotalWeight(): void&lt;br&gt;+ gerateLogSummary():String&lt;/font&gt;&lt;/b&gt;&lt;/p&gt;" style="verticalAlign=top;align=left;overflow=fill;html=1;whiteSpace=wrap;strokeColor=light-dark(#000000,#006666);fillColor=light-dark(#006666,#000000);" parent="WIyWlLk6GJQsqaUBKTNV-1" vertex="1">
          <mxGeometry x="920" y="1200" width="215" height="240" as="geometry" />
        </mxCell>
        <mxCell id="reU4VRnG09UlHgy5-MGn-30" value="&lt;p style=&quot;margin:0px;margin-top:4px;text-align:center;&quot;&gt;&lt;b&gt;&lt;font face=&quot;Verdana&quot;&gt;ErrorHandler&lt;/font&gt;&lt;/b&gt;&lt;/p&gt;&lt;hr size=&quot;1&quot; style=&quot;border-style:solid;&quot;&gt;&lt;p style=&quot;margin:0px;margin-left:4px;&quot;&gt;&lt;b&gt;&lt;font face=&quot;Verdana&quot;&gt;+ Message: String&lt;/font&gt;&lt;/b&gt;&lt;/p&gt;&lt;hr size=&quot;1&quot; style=&quot;border-style:solid;&quot;&gt;&lt;p style=&quot;margin:0px;margin-left:4px;&quot;&gt;&lt;b&gt;&lt;font face=&quot;Verdana&quot;&gt;+ LogError(Exeption e): void&lt;/font&gt;&lt;/b&gt;&lt;/p&gt;" style="verticalAlign=top;align=left;overflow=fill;html=1;whiteSpace=wrap;strokeColor=light-dark(#000000,#006666);fillColor=light-dark(#006666,#000000);" parent="WIyWlLk6GJQsqaUBKTNV-1" vertex="1">
          <mxGeometry x="115" y="1830" width="160" height="90" as="geometry" />
        </mxCell>
        <mxCell id="reU4VRnG09UlHgy5-MGn-31" value="&lt;p style=&quot;margin:0px;margin-top:4px;text-align:center;&quot;&gt;&lt;b&gt;&lt;font face=&quot;Verdana&quot;&gt;Fisherman&lt;/font&gt;&lt;/b&gt;&lt;/p&gt;&lt;hr size=&quot;1&quot; style=&quot;border-style:solid;&quot;&gt;&lt;p style=&quot;margin:0px;margin-left:4px;&quot;&gt;&lt;b&gt;&lt;font face=&quot;Verdana&quot;&gt;+ FisherManID: int&lt;/font&gt;&lt;/b&gt;&lt;/p&gt;" style="verticalAlign=top;align=left;overflow=fill;html=1;whiteSpace=wrap;strokeColor=light-dark(#000000,#006666);fillColor=light-dark(#006666,#000000);" parent="WIyWlLk6GJQsqaUBKTNV-1" vertex="1">
          <mxGeometry x="-413" y="1400" width="160" height="60" as="geometry" />
        </mxCell>
        <mxCell id="reU4VRnG09UlHgy5-MGn-32" value="&lt;p style=&quot;margin:0px;margin-top:4px;text-align:center;&quot;&gt;&lt;b&gt;&lt;font face=&quot;Verdana&quot;&gt;DateController&lt;/font&gt;&lt;/b&gt;&lt;/p&gt;&lt;hr size=&quot;1&quot; style=&quot;border-style:solid;&quot;&gt;&lt;p style=&quot;margin:0px;margin-left:4px;&quot;&gt;&lt;b&gt;&lt;font face=&quot;Verdana&quot;&gt;+ catchDate:Date&lt;/font&gt;&lt;/b&gt;&lt;/p&gt;&lt;hr size=&quot;1&quot; style=&quot;border-style:solid;&quot;&gt;&lt;p style=&quot;margin:0px;margin-left:4px;&quot;&gt;&lt;b&gt;&lt;font face=&quot;Verdana&quot;&gt;+ parseDate(String input): Date&lt;br&gt;&lt;/font&gt;&lt;/b&gt;&lt;br&gt;&lt;/p&gt;" style="verticalAlign=top;align=left;overflow=fill;html=1;whiteSpace=wrap;strokeColor=light-dark(#000000,#006666);fillColor=light-dark(#006666,#000000);" parent="WIyWlLk6GJQsqaUBKTNV-1" vertex="1">
          <mxGeometry x="187.5" y="2120" width="322.5" height="110" as="geometry" />
        </mxCell>
        <mxCell id="reU4VRnG09UlHgy5-MGn-33" value="&lt;p style=&quot;margin:0px;margin-top:4px;text-align:center;&quot;&gt;&lt;b&gt;&lt;font face=&quot;Verdana&quot;&gt;QuantityController&lt;/font&gt;&lt;/b&gt;&lt;/p&gt;&lt;hr size=&quot;1&quot; style=&quot;border-style:solid;&quot;&gt;&lt;p style=&quot;margin:0px;margin-left:4px;&quot;&gt;&lt;b&gt;&lt;font face=&quot;Verdana&quot;&gt;+ quantity:int&lt;/font&gt;&lt;/b&gt;&lt;/p&gt;&lt;hr size=&quot;1&quot; style=&quot;border-style:solid;&quot;&gt;&lt;p style=&quot;margin:0px;margin-left:4px;&quot;&gt;&lt;b&gt;&lt;font face=&quot;Verdana&quot;&gt;+ validateQuantity(int quantity): boolean&lt;br&gt;&lt;br&gt;&lt;/font&gt;&lt;/b&gt;&lt;br&gt;&lt;/p&gt;" style="verticalAlign=top;align=left;overflow=fill;html=1;whiteSpace=wrap;strokeColor=light-dark(#000000,#006666);fillColor=light-dark(#006666,#000000);" parent="WIyWlLk6GJQsqaUBKTNV-1" vertex="1">
          <mxGeometry x="600" y="1935" width="322.5" height="100" as="geometry" />
        </mxCell>
        <mxCell id="reU4VRnG09UlHgy5-MGn-34" value="Use" style="endArrow=open;endSize=12;dashed=1;html=1;rounded=0;exitX=1;exitY=0.159;exitDx=0;exitDy=0;exitPerimeter=0;entryX=-0.002;entryY=0.062;entryDx=0;entryDy=0;entryPerimeter=0;" parent="WIyWlLk6GJQsqaUBKTNV-1" source="reU4VRnG09UlHgy5-MGn-31" target="reU4VRnG09UlHgy5-MGn-28" edge="1">
          <mxGeometry x="-0.0794" y="9" width="160" relative="1" as="geometry">
            <mxPoint x="-410.5" y="1410" as="sourcePoint" />
            <mxPoint x="10" y="1410" as="targetPoint" />
            <mxPoint as="offset" />
          </mxGeometry>
        </mxCell>
        <mxCell id="reU4VRnG09UlHgy5-MGn-35" value="&lt;p style=&quot;margin:0px;margin-top:4px;text-align:center;&quot;&gt;&lt;b&gt;&lt;font face=&quot;Verdana&quot;&gt;FinishLogScreen&lt;/font&gt;&lt;/b&gt;&lt;/p&gt;&lt;hr size=&quot;1&quot; style=&quot;border-style:solid;&quot;&gt;&lt;pre style=&quot;margin:0px;margin-left:4px;&quot;&gt;&lt;b&gt;&lt;font face=&quot;Verdana&quot;&gt;- List &amp;lt;FishLog&amp;gt;&lt;br&gt;&lt;/font&gt;&lt;/b&gt;&lt;/pre&gt;&lt;hr size=&quot;1&quot; style=&quot;border-style:solid;&quot;&gt;&lt;p style=&quot;margin:0px;margin-left:4px;&quot;&gt;&lt;b style=&quot;&quot;&gt;&lt;font face=&quot;Verdana&quot;&gt;+ displayLog(): String&lt;/font&gt;&lt;/b&gt;&lt;/p&gt;" style="verticalAlign=top;align=left;overflow=fill;html=1;whiteSpace=wrap;strokeColor=light-dark(#000000,#006666);fillColor=light-dark(#006666,#000000);" parent="WIyWlLk6GJQsqaUBKTNV-1" vertex="1">
          <mxGeometry x="-370" y="1960" width="260" height="140" as="geometry" />
        </mxCell>
        <mxCell id="reU4VRnG09UlHgy5-MGn-36" value="" style="endArrow=none;html=1;edgeStyle=orthogonalEdgeStyle;rounded=0;entryX=0;entryY=0;entryDx=0;entryDy=0;exitX=1.002;exitY=0.127;exitDx=0;exitDy=0;exitPerimeter=0;" parent="WIyWlLk6GJQsqaUBKTNV-1" source="reU4VRnG09UlHgy5-MGn-28" target="reU4VRnG09UlHgy5-MGn-29" edge="1">
          <mxGeometry relative="1" as="geometry">
            <mxPoint x="250" y="1320" as="sourcePoint" />
            <mxPoint x="535" y="1416" as="targetPoint" />
            <Array as="points">
              <mxPoint x="331" y="1428" />
              <mxPoint x="450" y="1428" />
              <mxPoint x="450" y="1280" />
            </Array>
          </mxGeometry>
        </mxCell>
        <mxCell id="reU4VRnG09UlHgy5-MGn-37" value="Creates" style="text;html=1;align=center;verticalAlign=middle;resizable=0;points=[];autosize=1;strokeColor=none;fillColor=none;" parent="WIyWlLk6GJQsqaUBKTNV-1" vertex="1">
          <mxGeometry x="390" y="1330" width="70" height="30" as="geometry" />
        </mxCell>
        <mxCell id="reU4VRnG09UlHgy5-MGn-38" value="1" style="text;html=1;align=center;verticalAlign=middle;resizable=0;points=[];autosize=1;strokeColor=none;fillColor=none;" parent="WIyWlLk6GJQsqaUBKTNV-1" vertex="1">
          <mxGeometry x="553.75" y="1250" width="30" height="30" as="geometry" />
        </mxCell>
        <mxCell id="reU4VRnG09UlHgy5-MGn-39" value="1" style="text;html=1;align=center;verticalAlign=middle;resizable=0;points=[];autosize=1;strokeColor=none;fillColor=none;" parent="WIyWlLk6GJQsqaUBKTNV-1" vertex="1">
          <mxGeometry x="349" y="1400" width="30" height="30" as="geometry" />
        </mxCell>
        <mxCell id="reU4VRnG09UlHgy5-MGn-40" value="" style="endArrow=none;html=1;edgeStyle=orthogonalEdgeStyle;rounded=0;exitX=0.868;exitY=1.01;exitDx=0;exitDy=0;exitPerimeter=0;" parent="WIyWlLk6GJQsqaUBKTNV-1" source="reU4VRnG09UlHgy5-MGn-28" target="reU4VRnG09UlHgy5-MGn-30" edge="1">
          <mxGeometry relative="1" as="geometry">
            <mxPoint x="314.8999999999998" y="2000" as="sourcePoint" />
            <mxPoint x="-83.94999999999965" y="1901.7400000000002" as="targetPoint" />
            <Array as="points">
              <mxPoint x="288" y="1900" />
            </Array>
          </mxGeometry>
        </mxCell>
        <mxCell id="reU4VRnG09UlHgy5-MGn-41" value="Has" style="text;html=1;align=center;verticalAlign=middle;resizable=0;points=[];autosize=1;strokeColor=none;fillColor=none;" parent="WIyWlLk6GJQsqaUBKTNV-1" vertex="1">
          <mxGeometry x="290" y="1820" width="40" height="30" as="geometry" />
        </mxCell>
        <mxCell id="reU4VRnG09UlHgy5-MGn-42" value="" style="endArrow=none;html=1;edgeStyle=orthogonalEdgeStyle;rounded=0;exitX=0;exitY=0;exitDx=0;exitDy=0;" parent="WIyWlLk6GJQsqaUBKTNV-1" source="reU4VRnG09UlHgy5-MGn-33" target="reU4VRnG09UlHgy5-MGn-28" edge="1">
          <mxGeometry relative="1" as="geometry">
            <mxPoint x="529.9775000000002" y="1810" as="sourcePoint" />
            <mxPoint x="332.98" y="1580" as="targetPoint" />
            <Array as="points">
              <mxPoint x="530" y="1935" />
              <mxPoint x="530" y="1640" />
            </Array>
          </mxGeometry>
        </mxCell>
        <mxCell id="reU4VRnG09UlHgy5-MGn-43" value="Validates" style="text;html=1;align=center;verticalAlign=middle;resizable=0;points=[];autosize=1;strokeColor=none;fillColor=none;" parent="WIyWlLk6GJQsqaUBKTNV-1" vertex="1">
          <mxGeometry x="470" y="1850" width="70" height="30" as="geometry" />
        </mxCell>
        <mxCell id="reU4VRnG09UlHgy5-MGn-44" value="1" style="text;html=1;align=center;verticalAlign=middle;resizable=0;points=[];autosize=1;strokeColor=none;fillColor=none;" parent="WIyWlLk6GJQsqaUBKTNV-1" vertex="1">
          <mxGeometry x="330" y="1640" width="30" height="30" as="geometry" />
        </mxCell>
        <mxCell id="reU4VRnG09UlHgy5-MGn-45" value="1" style="text;html=1;align=center;verticalAlign=middle;resizable=0;points=[];autosize=1;strokeColor=none;fillColor=none;" parent="WIyWlLk6GJQsqaUBKTNV-1" vertex="1">
          <mxGeometry x="540" y="1900" width="30" height="30" as="geometry" />
        </mxCell>
        <mxCell id="reU4VRnG09UlHgy5-MGn-46" value="" style="endArrow=none;html=1;edgeStyle=orthogonalEdgeStyle;rounded=0;exitX=0.002;exitY=0.163;exitDx=0;exitDy=0;exitPerimeter=0;entryX=0.002;entryY=0.595;entryDx=0;entryDy=0;entryPerimeter=0;" parent="WIyWlLk6GJQsqaUBKTNV-1" source="reU4VRnG09UlHgy5-MGn-32" target="reU4VRnG09UlHgy5-MGn-28" edge="1">
          <mxGeometry relative="1" as="geometry">
            <mxPoint x="-13.502499999999827" y="1949" as="sourcePoint" />
            <mxPoint x="-123.71500000000015" y="1539.6799999999998" as="targetPoint" />
            <Array as="points">
              <mxPoint x="-14" y="2138" />
              <mxPoint x="-14" y="1557" />
            </Array>
          </mxGeometry>
        </mxCell>
        <mxCell id="reU4VRnG09UlHgy5-MGn-47" value="Validates" style="text;html=1;align=center;verticalAlign=middle;resizable=0;points=[];autosize=1;strokeColor=none;fillColor=none;" parent="WIyWlLk6GJQsqaUBKTNV-1" vertex="1">
          <mxGeometry y="1800" width="70" height="30" as="geometry" />
        </mxCell>
        <mxCell id="reU4VRnG09UlHgy5-MGn-48" value="1" style="text;html=1;align=center;verticalAlign=middle;resizable=0;points=[];autosize=1;strokeColor=none;fillColor=none;" parent="WIyWlLk6GJQsqaUBKTNV-1" vertex="1">
          <mxGeometry x="-50" y="1550" width="30" height="30" as="geometry" />
        </mxCell>
        <mxCell id="reU4VRnG09UlHgy5-MGn-49" value="1" style="text;html=1;align=center;verticalAlign=middle;resizable=0;points=[];autosize=1;strokeColor=none;fillColor=none;" parent="WIyWlLk6GJQsqaUBKTNV-1" vertex="1">
          <mxGeometry x="130" y="2090" width="30" height="30" as="geometry" />
        </mxCell>
        <mxCell id="reU4VRnG09UlHgy5-MGn-50" value="" style="endArrow=none;html=1;edgeStyle=orthogonalEdgeStyle;rounded=0;entryX=1;entryY=0.5;entryDx=0;entryDy=0;exitX=0.006;exitY=0.416;exitDx=0;exitDy=0;exitPerimeter=0;" parent="WIyWlLk6GJQsqaUBKTNV-1" source="reU4VRnG09UlHgy5-MGn-76" target="reU4VRnG09UlHgy5-MGn-28" edge="1">
          <mxGeometry relative="1" as="geometry">
            <mxPoint x="1000.2799999999997" y="1625.2000000000003" as="sourcePoint" />
            <mxPoint x="827.005" y="1498.4499999999998" as="targetPoint" />
            <Array as="points">
              <mxPoint x="827" y="1619" />
              <mxPoint x="827" y="1530" />
            </Array>
          </mxGeometry>
        </mxCell>
        <mxCell id="reU4VRnG09UlHgy5-MGn-51" value="References" style="text;html=1;align=center;verticalAlign=middle;resizable=0;points=[];autosize=1;strokeColor=none;fillColor=none;" parent="WIyWlLk6GJQsqaUBKTNV-1" vertex="1">
          <mxGeometry x="827" y="1580" width="80" height="30" as="geometry" />
        </mxCell>
        <mxCell id="reU4VRnG09UlHgy5-MGn-52" value="1" style="text;html=1;align=center;verticalAlign=middle;resizable=0;points=[];autosize=1;strokeColor=none;fillColor=none;" parent="WIyWlLk6GJQsqaUBKTNV-1" vertex="1">
          <mxGeometry x="330" y="1500" width="30" height="30" as="geometry" />
        </mxCell>
        <mxCell id="reU4VRnG09UlHgy5-MGn-53" value="n" style="text;html=1;align=center;verticalAlign=middle;resizable=0;points=[];autosize=1;strokeColor=none;fillColor=none;" parent="WIyWlLk6GJQsqaUBKTNV-1" vertex="1">
          <mxGeometry x="968.9" y="1590" width="30" height="30" as="geometry" />
        </mxCell>
        <mxCell id="reU4VRnG09UlHgy5-MGn-54" value="1" style="text;html=1;align=center;verticalAlign=middle;resizable=0;points=[];autosize=1;strokeColor=none;fillColor=none;" parent="WIyWlLk6GJQsqaUBKTNV-1" vertex="1">
          <mxGeometry x="1150" y="1330" width="30" height="30" as="geometry" />
        </mxCell>
        <mxCell id="reU4VRnG09UlHgy5-MGn-55" value="" style="endArrow=none;html=1;edgeStyle=orthogonalEdgeStyle;rounded=0;entryX=1.023;entryY=0.708;entryDx=0;entryDy=0;entryPerimeter=0;" parent="WIyWlLk6GJQsqaUBKTNV-1" target="reU4VRnG09UlHgy5-MGn-29" edge="1">
          <mxGeometry relative="1" as="geometry">
            <mxPoint x="1245.8300000000002" y="1694" as="sourcePoint" />
            <mxPoint x="1160" y="1370" as="targetPoint" />
            <Array as="points">
              <mxPoint x="1350" y="1694" />
              <mxPoint x="1350" y="1370" />
            </Array>
          </mxGeometry>
        </mxCell>
        <mxCell id="reU4VRnG09UlHgy5-MGn-56" value="1" style="text;html=1;align=center;verticalAlign=middle;resizable=0;points=[];autosize=1;strokeColor=none;fillColor=none;" parent="WIyWlLk6GJQsqaUBKTNV-1" vertex="1">
          <mxGeometry x="830" y="1290" width="30" height="30" as="geometry" />
        </mxCell>
        <mxCell id="reU4VRnG09UlHgy5-MGn-57" value="1" style="text;html=1;align=center;verticalAlign=middle;resizable=0;points=[];autosize=1;strokeColor=none;fillColor=none;" parent="WIyWlLk6GJQsqaUBKTNV-1" vertex="1">
          <mxGeometry x="968.9" y="1680" width="30" height="30" as="geometry" />
        </mxCell>
        <mxCell id="reU4VRnG09UlHgy5-MGn-58" value="&lt;b&gt;&lt;font face=&quot;Verdana&quot;&gt;Finalises&lt;/font&gt;&lt;/b&gt;" style="text;html=1;align=center;verticalAlign=middle;resizable=0;points=[];autosize=1;strokeColor=none;fillColor=none;" parent="WIyWlLk6GJQsqaUBKTNV-1" vertex="1">
          <mxGeometry x="1350" y="1560" width="80" height="30" as="geometry" />
        </mxCell>
        <mxCell id="reU4VRnG09UlHgy5-MGn-59" value="" style="endArrow=none;html=1;edgeStyle=orthogonalEdgeStyle;rounded=0;exitX=0;exitY=0.348;exitDx=0;exitDy=0;exitPerimeter=0;" parent="WIyWlLk6GJQsqaUBKTNV-1" source="reU4VRnG09UlHgy5-MGn-29" edge="1">
          <mxGeometry relative="1" as="geometry">
            <mxPoint x="889" y="1290.04" as="sourcePoint" />
            <mxPoint x="795" y="1530" as="targetPoint" />
            <Array as="points">
              <mxPoint x="830" y="1290" />
              <mxPoint x="830" y="1452" />
              <mxPoint x="795" y="1452" />
            </Array>
          </mxGeometry>
        </mxCell>
        <mxCell id="reU4VRnG09UlHgy5-MGn-60" value="" style="endArrow=none;html=1;edgeStyle=orthogonalEdgeStyle;rounded=0;exitX=1;exitY=0.694;exitDx=0;exitDy=0;exitPerimeter=0;entryX=0;entryY=0.75;entryDx=0;entryDy=0;" parent="WIyWlLk6GJQsqaUBKTNV-1" source="reU4VRnG09UlHgy5-MGn-28" target="reU4VRnG09UlHgy5-MGn-76" edge="1">
          <mxGeometry relative="1" as="geometry">
            <mxPoint x="583.75" y="1590" as="sourcePoint" />
            <mxPoint x="743.75" y="1829.88" as="targetPoint" />
            <Array as="points">
              <mxPoint x="664" y="1584" />
              <mxPoint x="664" y="1680" />
              <mxPoint x="999" y="1680" />
            </Array>
          </mxGeometry>
        </mxCell>
        <mxCell id="reU4VRnG09UlHgy5-MGn-61" value="1" style="text;html=1;align=center;verticalAlign=middle;resizable=0;points=[];autosize=1;strokeColor=none;fillColor=none;" parent="WIyWlLk6GJQsqaUBKTNV-1" vertex="1">
          <mxGeometry x="339" y="1550" width="30" height="30" as="geometry" />
        </mxCell>
        <mxCell id="reU4VRnG09UlHgy5-MGn-62" value="Checks" style="text;html=1;align=center;verticalAlign=middle;resizable=0;points=[];autosize=1;strokeColor=none;fillColor=none;" parent="WIyWlLk6GJQsqaUBKTNV-1" vertex="1">
          <mxGeometry x="680" y="1690" width="60" height="30" as="geometry" />
        </mxCell>
        <mxCell id="reU4VRnG09UlHgy5-MGn-63" value="" style="endArrow=none;html=1;edgeStyle=orthogonalEdgeStyle;rounded=0;entryX=0.404;entryY=1.048;entryDx=0;entryDy=0;entryPerimeter=0;" parent="WIyWlLk6GJQsqaUBKTNV-1" target="reU4VRnG09UlHgy5-MGn-30" edge="1">
          <mxGeometry relative="1" as="geometry">
            <mxPoint x="1350" y="1690" as="sourcePoint" />
            <mxPoint x="940.98" y="2168.9700000000003" as="targetPoint" />
            <Array as="points">
              <mxPoint x="490" y="2070" />
              <mxPoint x="490" y="2040" />
              <mxPoint x="180" y="2040" />
            </Array>
          </mxGeometry>
        </mxCell>
        <mxCell id="reU4VRnG09UlHgy5-MGn-64" value="OverWeight" style="text;html=1;align=center;verticalAlign=middle;resizable=0;points=[];autosize=1;strokeColor=none;fillColor=none;" parent="WIyWlLk6GJQsqaUBKTNV-1" vertex="1">
          <mxGeometry x="1248.9" y="1820" width="90" height="30" as="geometry" />
        </mxCell>
        <mxCell id="reU4VRnG09UlHgy5-MGn-65" value="&lt;b&gt;&lt;font face=&quot;Verdana&quot;&gt;Finalises&lt;/font&gt;&lt;/b&gt;" style="text;html=1;align=center;verticalAlign=middle;resizable=0;points=[];autosize=1;strokeColor=none;fillColor=none;" parent="WIyWlLk6GJQsqaUBKTNV-1" vertex="1">
          <mxGeometry x="980" y="1930" width="80" height="30" as="geometry" />
        </mxCell>
        <mxCell id="reU4VRnG09UlHgy5-MGn-66" value="1" style="text;html=1;align=center;verticalAlign=middle;resizable=0;points=[];autosize=1;strokeColor=none;fillColor=none;" parent="WIyWlLk6GJQsqaUBKTNV-1" vertex="1">
          <mxGeometry x="820" y="1960" width="30" height="30" as="geometry" />
        </mxCell>
        <mxCell id="reU4VRnG09UlHgy5-MGn-67" value="1" style="text;html=1;align=center;verticalAlign=middle;resizable=0;points=[];autosize=1;strokeColor=none;fillColor=none;" parent="WIyWlLk6GJQsqaUBKTNV-1" vertex="1">
          <mxGeometry x="1140" y="1240" width="30" height="30" as="geometry" />
        </mxCell>
        <mxCell id="reU4VRnG09UlHgy5-MGn-68" value="" style="endArrow=none;html=1;edgeStyle=orthogonalEdgeStyle;rounded=0;entryX=0.002;entryY=0.595;entryDx=0;entryDy=0;entryPerimeter=0;" parent="WIyWlLk6GJQsqaUBKTNV-1" edge="1">
          <mxGeometry relative="1" as="geometry">
            <mxPoint x="-150" y="1960" as="sourcePoint" />
            <mxPoint x="15.5" y="1460" as="targetPoint" />
            <Array as="points">
              <mxPoint x="-150" y="1960" />
              <mxPoint x="-150" y="1460" />
            </Array>
          </mxGeometry>
        </mxCell>
        <mxCell id="reU4VRnG09UlHgy5-MGn-69" value="&lt;b&gt;Confirm Finish&lt;/b&gt;" style="text;html=1;align=center;verticalAlign=middle;resizable=0;points=[];autosize=1;strokeColor=none;fillColor=none;" parent="WIyWlLk6GJQsqaUBKTNV-1" vertex="1">
          <mxGeometry x="-265" y="1754" width="110" height="30" as="geometry" />
        </mxCell>
        <mxCell id="reU4VRnG09UlHgy5-MGn-70" value="1" style="text;html=1;align=center;verticalAlign=middle;resizable=0;points=[];autosize=1;strokeColor=none;fillColor=none;" parent="WIyWlLk6GJQsqaUBKTNV-1" vertex="1">
          <mxGeometry x="540" y="2170" width="30" height="30" as="geometry" />
        </mxCell>
        <mxCell id="reU4VRnG09UlHgy5-MGn-71" value="&lt;b&gt;&lt;font face=&quot;Verdana&quot;&gt;Finalises&lt;/font&gt;&lt;/b&gt;" style="text;html=1;align=center;verticalAlign=middle;resizable=0;points=[];autosize=1;strokeColor=none;fillColor=none;" parent="WIyWlLk6GJQsqaUBKTNV-1" vertex="1">
          <mxGeometry x="987.5" y="2170" width="80" height="30" as="geometry" />
        </mxCell>
        <mxCell id="reU4VRnG09UlHgy5-MGn-72" value="n" style="text;html=1;align=center;verticalAlign=middle;resizable=0;points=[];autosize=1;strokeColor=none;fillColor=none;" parent="WIyWlLk6GJQsqaUBKTNV-1" vertex="1">
          <mxGeometry x="877" y="1170" width="30" height="30" as="geometry" />
        </mxCell>
        <mxCell id="reU4VRnG09UlHgy5-MGn-73" value="1" style="text;html=1;align=center;verticalAlign=middle;resizable=0;points=[];autosize=1;strokeColor=none;fillColor=none;" parent="WIyWlLk6GJQsqaUBKTNV-1" vertex="1">
          <mxGeometry x="-320" y="1360" width="30" height="30" as="geometry" />
        </mxCell>
        <mxCell id="reU4VRnG09UlHgy5-MGn-74" value="1" style="text;html=1;align=center;verticalAlign=middle;resizable=0;points=[];autosize=1;strokeColor=none;fillColor=none;" parent="WIyWlLk6GJQsqaUBKTNV-1" vertex="1">
          <mxGeometry x="235" y="690" width="30" height="30" as="geometry" />
        </mxCell>
        <mxCell id="reU4VRnG09UlHgy5-MGn-75" value="Enters" style="endArrow=open;endSize=12;dashed=1;html=1;rounded=0;exitX=0.5;exitY=0;exitDx=0;exitDy=0;" parent="WIyWlLk6GJQsqaUBKTNV-1" source="reU4VRnG09UlHgy5-MGn-31" edge="1">
          <mxGeometry x="0.0089" y="-11" width="160" relative="1" as="geometry">
            <mxPoint x="-318.5" y="1320" as="sourcePoint" />
            <mxPoint x="920" y="1198" as="targetPoint" />
            <mxPoint as="offset" />
            <Array as="points">
              <mxPoint x="-333" y="1200" />
            </Array>
          </mxGeometry>
        </mxCell>
        <mxCell id="reU4VRnG09UlHgy5-MGn-76" value="&lt;p style=&quot;margin:0px;margin-top:4px;text-align:center;&quot;&gt;&lt;b&gt;&lt;font face=&quot;Verdana&quot;&gt;FishTypeContr&lt;/font&gt;&lt;/b&gt;&lt;/p&gt;&lt;hr style=&quot;border-style: solid;&quot; size=&quot;1&quot;&gt;&lt;div style=&quot;text-wrap-mode: nowrap; text-align: center;&quot;&gt;&lt;b&gt;&lt;font face=&quot;Verdana&quot;&gt;-&amp;nbsp;&lt;span style=&quot;background-color: transparent; color: light-dark(rgb(0, 0, 0), rgb(255, 255, 255));&quot;&gt;typeId: int&lt;/span&gt;&lt;span style=&quot;background-color: transparent; color: light-dark(rgb(0, 0, 0), rgb(255, 255, 255));&quot;&gt;&amp;nbsp;&lt;/span&gt;&lt;/font&gt;&lt;/b&gt;&lt;/div&gt;&lt;div style=&quot;text-wrap-mode: nowrap; text-align: center;&quot;&gt;&lt;b&gt;&lt;font face=&quot;Verdana&quot;&gt;-typeName:&amp;nbsp;&lt;span style=&quot;background-color: transparent; color: light-dark(rgb(0, 0, 0), rgb(255, 255, 255));&quot;&gt;String&lt;/span&gt;&lt;span style=&quot;background-color: transparent; color: light-dark(rgb(0, 0, 0), rgb(255, 255, 255));&quot;&gt;&amp;nbsp;&lt;/span&gt;&lt;/font&gt;&lt;/b&gt;&lt;/div&gt;&lt;div style=&quot;text-wrap-mode: nowrap; text-align: center;&quot;&gt;&lt;b&gt;&lt;font face=&quot;Verdana&quot;&gt;-List availableTypes&lt;/font&gt;&lt;/b&gt;&lt;b style=&quot;background-color: transparent; color: light-dark(rgb(0, 0, 0), rgb(255, 255, 255));&quot;&gt;&lt;font face=&quot;Verdana&quot;&gt;:String&lt;/font&gt;&lt;/b&gt;&lt;/div&gt;&lt;div style=&quot;text-wrap-mode: nowrap; text-align: center;&quot;&gt;&lt;b&gt;&lt;font face=&quot;Verdana&quot;&gt;- maxAllowedWeight:&lt;span style=&quot;background-color: transparent; color: light-dark(rgb(0, 0, 0), rgb(255, 255, 255));&quot;&gt;double&lt;/span&gt;&lt;span style=&quot;background-color: transparent; color: light-dark(rgb(0, 0, 0), rgb(255, 255, 255));&quot;&gt;&amp;nbsp;&lt;/span&gt;&lt;/font&gt;&lt;/b&gt;&lt;/div&gt;&lt;hr size=&quot;1&quot; style=&quot;border-style:solid;&quot;&gt;&lt;p style=&quot;margin: 0px 0px 0px 4px;&quot;&gt;&lt;b&gt;&lt;font face=&quot;Verdana&quot;&gt;+ validateWeight( double weight, String FishType): boolean&lt;br&gt;+getWeightRegulations( String FishType)&lt;/font&gt;&lt;/b&gt;&lt;/p&gt;" style="verticalAlign=top;align=left;overflow=fill;html=1;whiteSpace=wrap;strokeColor=light-dark(#000000,#006666);fillColor=light-dark(#006666,#000000);" parent="WIyWlLk6GJQsqaUBKTNV-1" vertex="1">
          <mxGeometry x="998.9" y="1540" width="250" height="190" as="geometry" />
        </mxCell>
        <mxCell id="reU4VRnG09UlHgy5-MGn-77" value="" style="endArrow=none;html=1;edgeStyle=orthogonalEdgeStyle;rounded=0;exitX=1;exitY=0.5;exitDx=0;exitDy=0;entryX=0.981;entryY=0.283;entryDx=0;entryDy=0;entryPerimeter=0;" parent="WIyWlLk6GJQsqaUBKTNV-1" source="reU4VRnG09UlHgy5-MGn-33" target="reU4VRnG09UlHgy5-MGn-29" edge="1">
          <mxGeometry relative="1" as="geometry">
            <mxPoint x="940" y="1776" as="sourcePoint" />
            <mxPoint x="1215" y="1360" as="targetPoint" />
            <Array as="points">
              <mxPoint x="1450" y="1985" />
              <mxPoint x="1450" y="1270" />
              <mxPoint x="1131" y="1270" />
            </Array>
          </mxGeometry>
        </mxCell>
        <mxCell id="reU4VRnG09UlHgy5-MGn-78" value="1" style="text;html=1;align=center;verticalAlign=middle;resizable=0;points=[];autosize=1;strokeColor=none;fillColor=none;" parent="WIyWlLk6GJQsqaUBKTNV-1" vertex="1">
          <mxGeometry x="1260" y="1700" width="30" height="30" as="geometry" />
        </mxCell>
        <mxCell id="reU4VRnG09UlHgy5-MGn-79" value="" style="endArrow=none;html=1;edgeStyle=orthogonalEdgeStyle;rounded=0;entryX=0.995;entryY=0.128;entryDx=0;entryDy=0;entryPerimeter=0;" parent="WIyWlLk6GJQsqaUBKTNV-1" target="reU4VRnG09UlHgy5-MGn-29" edge="1">
          <mxGeometry relative="1" as="geometry">
            <mxPoint x="510" y="2205" as="sourcePoint" />
            <mxPoint x="1130" y="1240" as="targetPoint" />
            <Array as="points">
              <mxPoint x="510" y="2206" />
              <mxPoint x="1550" y="2206" />
              <mxPoint x="1550" y="1232" />
              <mxPoint x="1134" y="1232" />
            </Array>
          </mxGeometry>
        </mxCell>
        <mxCell id="reU4VRnG09UlHgy5-MGn-80" value="1" style="text;html=1;align=center;verticalAlign=middle;resizable=0;points=[];autosize=1;strokeColor=none;fillColor=none;" parent="WIyWlLk6GJQsqaUBKTNV-1" vertex="1">
          <mxGeometry x="1140" y="1200" width="30" height="30" as="geometry" />
        </mxCell>
        <mxCell id="reU4VRnG09UlHgy5-MGn-81" value="1" style="text;html=1;align=center;verticalAlign=middle;resizable=0;points=[];autosize=1;strokeColor=none;fillColor=none;" parent="WIyWlLk6GJQsqaUBKTNV-1" vertex="1">
          <mxGeometry x="187.5" y="1930" width="30" height="30" as="geometry" />
        </mxCell>
        <mxCell id="reU4VRnG09UlHgy5-MGn-82" value="&lt;span style=&quot;font-size: 12px; background-color: rgb(27, 29, 30);&quot;&gt;places&lt;/span&gt;" style="endArrow=open;endSize=12;dashed=1;html=1;rounded=0;exitX=0.406;exitY=1;exitDx=0;exitDy=0;exitPerimeter=0;entryX=-0.01;entryY=0.616;entryDx=0;entryDy=0;entryPerimeter=0;" parent="WIyWlLk6GJQsqaUBKTNV-1" source="reU4VRnG09UlHgy5-MGn-97" target="reU4VRnG09UlHgy5-MGn-83" edge="1">
          <mxGeometry width="160" relative="1" as="geometry">
            <mxPoint x="-435" y="220" as="sourcePoint" />
            <mxPoint y="950" as="targetPoint" />
            <Array as="points">
              <mxPoint x="-440" y="950" />
            </Array>
          </mxGeometry>
        </mxCell>
        <mxCell id="reU4VRnG09UlHgy5-MGn-83" value="&lt;p style=&quot;margin:0px;margin-top:4px;text-align:center;&quot;&gt;&lt;b&gt;&lt;font face=&quot;Verdana&quot;&gt;Order&lt;/font&gt;&lt;/b&gt;&lt;/p&gt;&lt;hr size=&quot;1&quot; style=&quot;border-style:solid;&quot;&gt;&lt;p style=&quot;margin:0px;margin-left:4px;&quot;&gt;&lt;b&gt;&lt;font face=&quot;Verdana&quot;&gt;+ Chefid: int&lt;br&gt;+orderid: int&lt;br&gt;+ producer :producerId(Producer)&amp;nbsp;&lt;br&gt;+ Ingredients:&lt;br&gt;Map&amp;lt;Ingredients,quantity&amp;gt;&lt;br&gt;+ orderDate : Date&lt;br&gt;+ status:&lt;br&gt;&amp;nbsp;String(&quot;Confirmed&quot;,&quot;Canceld&quot;,&quot;Pending&quot;)&amp;nbsp;&lt;/font&gt;&lt;/b&gt;&lt;/p&gt;&lt;hr size=&quot;1&quot; style=&quot;border-style:solid;&quot;&gt;&lt;p style=&quot;margin:0px;margin-left:4px;&quot;&gt;&lt;b&gt;&lt;font face=&quot;Verdana&quot;&gt;+addIngredient(Ingredient, int)&lt;br&gt;&lt;/font&gt;&lt;/b&gt;&lt;b&gt;&lt;font face=&quot;Verdana&quot;&gt;+UpdateOrder()&lt;/font&gt;&lt;/b&gt;&lt;/p&gt;" style="verticalAlign=top;align=left;overflow=fill;html=1;whiteSpace=wrap;strokeColor=light-dark(#000000,#006666);fillColor=light-dark(#006666,#000000);" parent="WIyWlLk6GJQsqaUBKTNV-1" vertex="1">
          <mxGeometry x="10" y="820" width="290" height="210" as="geometry" />
        </mxCell>
        <mxCell id="reU4VRnG09UlHgy5-MGn-84" value="" style="endArrow=none;html=1;edgeStyle=orthogonalEdgeStyle;rounded=0;exitX=0.556;exitY=1.002;exitDx=0;exitDy=0;exitPerimeter=0;" parent="WIyWlLk6GJQsqaUBKTNV-1" source="reU4VRnG09UlHgy5-MGn-95" edge="1">
          <mxGeometry relative="1" as="geometry">
            <mxPoint x="240" y="700" as="sourcePoint" />
            <mxPoint x="207" y="817" as="targetPoint" />
            <Array as="points">
              <mxPoint x="240" y="750" />
              <mxPoint x="207" y="750" />
            </Array>
          </mxGeometry>
        </mxCell>
        <mxCell id="reU4VRnG09UlHgy5-MGn-85" value="Displayed" style="text;html=1;align=center;verticalAlign=middle;resizable=0;points=[];autosize=1;strokeColor=none;fillColor=none;" parent="WIyWlLk6GJQsqaUBKTNV-1" vertex="1">
          <mxGeometry x="610" y="490" width="80" height="30" as="geometry" />
        </mxCell>
        <mxCell id="reU4VRnG09UlHgy5-MGn-86" value="Displayed" style="text;html=1;align=center;verticalAlign=middle;resizable=0;points=[];autosize=1;strokeColor=none;fillColor=none;" parent="WIyWlLk6GJQsqaUBKTNV-1" vertex="1">
          <mxGeometry x="770" y="670" width="80" height="30" as="geometry" />
        </mxCell>
        <mxCell id="reU4VRnG09UlHgy5-MGn-87" value="&lt;p style=&quot;margin:0px;margin-top:4px;text-align:center;&quot;&gt;&lt;b&gt;&lt;font face=&quot;Verdana&quot;&gt;Producer&lt;/font&gt;&lt;/b&gt;&lt;/p&gt;&lt;hr size=&quot;1&quot; style=&quot;border-style:solid;&quot;&gt;&lt;p style=&quot;margin:0px;margin-left:4px;&quot;&gt;&lt;b&gt;&lt;font face=&quot;Verdana&quot;&gt;+producerId :int&lt;br&gt;+ Fullname: String&lt;br&gt;+ contactInfo :int&lt;br&gt;+availableIngredients:&lt;br&gt;List&amp;lt;Ingredients&amp;gt;&lt;/font&gt;&lt;/b&gt;&lt;/p&gt;&lt;hr size=&quot;1&quot; style=&quot;border-style:solid;&quot;&gt;&lt;p style=&quot;margin:0px;margin-left:4px;&quot;&gt;&lt;b&gt;&lt;font face=&quot;Verdana&quot;&gt;+getAvailableIngredients()&amp;nbsp;&lt;/font&gt;&lt;/b&gt;&lt;/p&gt;" style="verticalAlign=top;align=left;overflow=fill;html=1;whiteSpace=wrap;strokeColor=light-dark(#000000,#006666);fillColor=light-dark(#006666,#000000);" parent="WIyWlLk6GJQsqaUBKTNV-1" vertex="1">
          <mxGeometry x="580" y="750" width="160" height="140" as="geometry" />
        </mxCell>
        <mxCell id="reU4VRnG09UlHgy5-MGn-89" value="1" style="text;html=1;align=center;verticalAlign=middle;resizable=0;points=[];autosize=1;strokeColor=none;fillColor=none;" parent="WIyWlLk6GJQsqaUBKTNV-1" vertex="1">
          <mxGeometry x="310" y="840" width="30" height="30" as="geometry" />
        </mxCell>
        <mxCell id="reU4VRnG09UlHgy5-MGn-90" value="1" style="text;html=1;align=center;verticalAlign=middle;resizable=0;points=[];autosize=1;strokeColor=none;fillColor=none;" parent="WIyWlLk6GJQsqaUBKTNV-1" vertex="1">
          <mxGeometry x="330" y="900" width="30" height="30" as="geometry" />
        </mxCell>
        <mxCell id="reU4VRnG09UlHgy5-MGn-91" value="" style="endArrow=none;html=1;edgeStyle=orthogonalEdgeStyle;rounded=0;exitX=0.44;exitY=-0.019;exitDx=0;exitDy=0;entryX=0.609;entryY=0.997;entryDx=0;entryDy=0;entryPerimeter=0;exitPerimeter=0;" parent="WIyWlLk6GJQsqaUBKTNV-1" source="gb8vuSNpvKbIjROX9ZK6-0" target="reU4VRnG09UlHgy5-MGn-87" edge="1">
          <mxGeometry relative="1" as="geometry">
            <mxPoint x="630" y="1060" as="sourcePoint" />
            <mxPoint x="680" y="960" as="targetPoint" />
          </mxGeometry>
        </mxCell>
        <mxCell id="reU4VRnG09UlHgy5-MGn-92" value="Has a" style="text;html=1;align=center;verticalAlign=middle;resizable=0;points=[];autosize=1;strokeColor=none;fillColor=none;" parent="WIyWlLk6GJQsqaUBKTNV-1" vertex="1">
          <mxGeometry x="610" y="950" width="50" height="30" as="geometry" />
        </mxCell>
        <mxCell id="reU4VRnG09UlHgy5-MGn-93" value="1" style="text;html=1;align=center;verticalAlign=middle;resizable=0;points=[];autosize=1;strokeColor=none;fillColor=none;" parent="WIyWlLk6GJQsqaUBKTNV-1" vertex="1">
          <mxGeometry x="593.75" y="1030" width="30" height="30" as="geometry" />
        </mxCell>
        <mxCell id="reU4VRnG09UlHgy5-MGn-94" value="1..n" style="text;html=1;align=center;verticalAlign=middle;resizable=0;points=[];autosize=1;strokeColor=none;fillColor=none;" parent="WIyWlLk6GJQsqaUBKTNV-1" vertex="1">
          <mxGeometry x="680" y="890" width="40" height="30" as="geometry" />
        </mxCell>
        <mxCell id="reU4VRnG09UlHgy5-MGn-95" value="&lt;p style=&quot;margin:0px;margin-top:4px;text-align:center;&quot;&gt;&lt;b&gt;&lt;font face=&quot;Verdana&quot;&gt;OrderManager&lt;/font&gt;&lt;/b&gt;&lt;/p&gt;&lt;hr size=&quot;1&quot; style=&quot;border-style:solid;&quot;&gt;&lt;p style=&quot;margin:0px;margin-left:4px;&quot;&gt;&lt;b&gt;&lt;font face=&quot;Verdana&quot;&gt;+ orderId:int&lt;br&gt;&lt;/font&gt;&lt;/b&gt;&lt;span style=&quot;font-family: Verdana; font-weight: 700;&quot;&gt;+ isConfirmed :&lt;/span&gt;&lt;br style=&quot;font-family: Verdana; font-weight: 700;&quot;&gt;&lt;span style=&quot;font-family: Verdana; font-weight: 700;&quot;&gt;boolean Conf&lt;/span&gt;&lt;/p&gt;&lt;hr size=&quot;1&quot; style=&quot;border-style:solid;&quot;&gt;&lt;p style=&quot;margin:0px;margin-left:4px;&quot;&gt;&lt;b&gt;&lt;font face=&quot;Verdana&quot;&gt;+GetOrderDetails()&amp;nbsp;&lt;/font&gt;&lt;/b&gt;&lt;/p&gt;&lt;p style=&quot;margin:0px;margin-left:4px;&quot;&gt;&lt;b&gt;&lt;font face=&quot;Verdana&quot;&gt;+OrderConfirmed()&lt;/font&gt;&lt;/b&gt;&lt;/p&gt;&lt;p style=&quot;margin:0px;margin-left:4px;&quot;&gt;&lt;b&gt;&lt;font face=&quot;Verdana&quot;&gt;+cancelOrder() boolean&lt;br&gt;+UpdateOrder()&lt;/font&gt;&lt;/b&gt;&lt;/p&gt;&lt;div&gt;&lt;br&gt;&lt;/div&gt;" style="verticalAlign=top;align=left;overflow=fill;html=1;whiteSpace=wrap;strokeColor=light-dark(#000000,#006666);fillColor=light-dark(#006666,#000000);" parent="WIyWlLk6GJQsqaUBKTNV-1" vertex="1">
          <mxGeometry x="140" y="542" width="180" height="148" as="geometry" />
        </mxCell>
        <mxCell id="reU4VRnG09UlHgy5-MGn-96" value="1" style="text;html=1;align=center;verticalAlign=middle;resizable=0;points=[];autosize=1;strokeColor=none;fillColor=none;" parent="WIyWlLk6GJQsqaUBKTNV-1" vertex="1">
          <mxGeometry x="250" y="510" width="30" height="30" as="geometry" />
        </mxCell>
        <mxCell id="reU4VRnG09UlHgy5-MGn-97" value="&lt;p style=&quot;margin:0px;margin-top:4px;text-align:center;&quot;&gt;&lt;b&gt;&lt;font face=&quot;Verdana&quot;&gt;Chef&lt;/font&gt;&lt;/b&gt;&lt;/p&gt;&lt;hr size=&quot;1&quot; style=&quot;border-style:solid;&quot;&gt;&lt;p style=&quot;margin:0px;margin-left:4px;&quot;&gt;&lt;b&gt;&lt;font face=&quot;Verdana&quot;&gt;Chefid:&amp;nbsp; int&lt;/font&gt;&lt;/b&gt;&lt;/p&gt;&lt;p style=&quot;margin:0px;margin-left:4px;&quot;&gt;&lt;br&gt;&lt;/p&gt;" style="verticalAlign=top;align=left;overflow=fill;html=1;whiteSpace=wrap;fillColor=light-dark(#006666,#000000);strokeColor=light-dark(#000000,#006666);" parent="WIyWlLk6GJQsqaUBKTNV-1" vertex="1">
          <mxGeometry x="-500" y="160" width="160" height="60" as="geometry" />
        </mxCell>
        <mxCell id="reU4VRnG09UlHgy5-MGn-98" value="&lt;p style=&quot;margin:0px;margin-top:4px;text-align:center;&quot;&gt;&lt;b&gt;&lt;font face=&quot;Verdana&quot;&gt;ConfirmationScreen&lt;/font&gt;&lt;/b&gt;&lt;/p&gt;&lt;hr size=&quot;1&quot; style=&quot;border-style:solid;&quot;&gt;&lt;p style=&quot;margin:0px;margin-left:4px;&quot;&gt;&lt;b&gt;&lt;font face=&quot;Verdana&quot;&gt;+ CurrentOrder: int id&lt;br&gt;+ isConfirmed :&lt;br&gt;boolean Conf&lt;/font&gt;&lt;/b&gt;&lt;/p&gt;&lt;hr size=&quot;1&quot; style=&quot;border-style:solid;&quot;&gt;&lt;p style=&quot;margin:0px;margin-left:4px;&quot;&gt;&lt;b&gt;&lt;font face=&quot;Verdana&quot;&gt;+displayOrderDetails()&lt;/font&gt;&lt;/b&gt;&lt;/p&gt;&lt;p style=&quot;margin:0px;margin-left:4px;&quot;&gt;&lt;b&gt;&lt;font face=&quot;Verdana&quot;&gt;+OrderConfirmed()&lt;/font&gt;&lt;/b&gt;&lt;/p&gt;&lt;div&gt;&lt;br&gt;&lt;/div&gt;" style="verticalAlign=top;align=left;overflow=fill;html=1;whiteSpace=wrap;strokeColor=light-dark(#000000,#006666);fillColor=light-dark(#006666,#000000);" parent="WIyWlLk6GJQsqaUBKTNV-1" vertex="1">
          <mxGeometry x="-320" y="280" width="175" height="130" as="geometry" />
        </mxCell>
        <mxCell id="reU4VRnG09UlHgy5-MGn-99" value="" style="endArrow=none;html=1;edgeStyle=orthogonalEdgeStyle;rounded=0;entryX=0.457;entryY=1.025;entryDx=0;entryDy=0;entryPerimeter=0;" parent="WIyWlLk6GJQsqaUBKTNV-1" target="reU4VRnG09UlHgy5-MGn-98" edge="1">
          <mxGeometry relative="1" as="geometry">
            <mxPoint x="140" y="612" as="sourcePoint" />
            <mxPoint x="100" y="460" as="targetPoint" />
            <Array as="points">
              <mxPoint x="-240" y="612" />
            </Array>
          </mxGeometry>
        </mxCell>
        <mxCell id="reU4VRnG09UlHgy5-MGn-100" value="Confirms" style="text;html=1;align=center;verticalAlign=middle;resizable=0;points=[];autosize=1;strokeColor=none;fillColor=none;" parent="WIyWlLk6GJQsqaUBKTNV-1" vertex="1">
          <mxGeometry x="-245" y="542" width="70" height="30" as="geometry" />
        </mxCell>
        <mxCell id="reU4VRnG09UlHgy5-MGn-101" value="1" style="text;html=1;align=center;verticalAlign=middle;resizable=0;points=[];autosize=1;strokeColor=none;fillColor=none;" parent="WIyWlLk6GJQsqaUBKTNV-1" vertex="1">
          <mxGeometry x="-230" y="410" width="30" height="30" as="geometry" />
        </mxCell>
        <mxCell id="reU4VRnG09UlHgy5-MGn-102" value="1" style="text;html=1;align=center;verticalAlign=middle;resizable=0;points=[];autosize=1;strokeColor=none;fillColor=none;" parent="WIyWlLk6GJQsqaUBKTNV-1" vertex="1">
          <mxGeometry x="100" y="612" width="30" height="30" as="geometry" />
        </mxCell>
        <mxCell id="reU4VRnG09UlHgy5-MGn-103" value="" style="endArrow=none;html=1;edgeStyle=orthogonalEdgeStyle;rounded=0;entryX=-0.005;entryY=0.911;entryDx=0;entryDy=0;entryPerimeter=0;" parent="WIyWlLk6GJQsqaUBKTNV-1" target="reU4VRnG09UlHgy5-MGn-111" edge="1">
          <mxGeometry relative="1" as="geometry">
            <mxPoint x="140" y="550" as="sourcePoint" />
            <mxPoint x="112.11999999999989" y="404.0479999999998" as="targetPoint" />
            <Array as="points">
              <mxPoint x="-101" y="550" />
              <mxPoint x="-101" y="404" />
              <mxPoint x="109" y="404" />
            </Array>
          </mxGeometry>
        </mxCell>
        <mxCell id="reU4VRnG09UlHgy5-MGn-104" value="&lt;span style=&quot;color: rgb(255, 255, 255); font-family: Helvetica; font-size: 12px; font-style: normal; font-variant-ligatures: normal; font-variant-caps: normal; font-weight: 400; letter-spacing: normal; orphans: 2; text-align: center; text-indent: 0px; text-transform: none; widows: 2; word-spacing: 0px; -webkit-text-stroke-width: 0px; white-space: nowrap; background-color: rgb(27, 29, 30); text-decoration-thickness: initial; text-decoration-style: initial; text-decoration-color: initial; display: inline !important; float: none;&quot;&gt;Cancel&lt;/span&gt;" style="text;whiteSpace=wrap;html=1;" parent="WIyWlLk6GJQsqaUBKTNV-1" vertex="1">
          <mxGeometry x="-90" y="410" width="60" height="30" as="geometry" />
        </mxCell>
        <mxCell id="reU4VRnG09UlHgy5-MGn-105" value="1" style="text;html=1;align=center;verticalAlign=middle;resizable=0;points=[];autosize=1;strokeColor=none;fillColor=none;" parent="WIyWlLk6GJQsqaUBKTNV-1" vertex="1">
          <mxGeometry x="100" y="555" width="30" height="30" as="geometry" />
        </mxCell>
        <mxCell id="reU4VRnG09UlHgy5-MGn-106" value="1" style="text;html=1;align=center;verticalAlign=middle;resizable=0;points=[];autosize=1;strokeColor=none;fillColor=none;" parent="WIyWlLk6GJQsqaUBKTNV-1" vertex="1">
          <mxGeometry x="70" y="370" width="30" height="30" as="geometry" />
        </mxCell>
        <mxCell id="reU4VRnG09UlHgy5-MGn-111" value="&lt;p style=&quot;margin:0px;margin-top:4px;text-align:center;&quot;&gt;&lt;b&gt;&lt;font face=&quot;Verdana&quot;&gt;OrderIngredientsScreen&lt;/font&gt;&lt;/b&gt;&lt;/p&gt;&lt;hr size=&quot;1&quot; style=&quot;border-style:solid;&quot;&gt;&lt;p style=&quot;margin:0px;margin-left:4px;&quot;&gt;&lt;b&gt;&lt;font face=&quot;Verdana&quot;&gt;+ availableProduc:&lt;br&gt;List&amp;lt;Producers&amp;gt;&lt;br&gt;+ availableIngredients:&lt;br&gt;List&amp;lt;Ingredients&amp;gt;&lt;br&gt;+ producerId : int&lt;br&gt;+ selectedIngredients : Map&amp;lt;Ingredients,quantity&amp;gt;&lt;/font&gt;&lt;/b&gt;&lt;/p&gt;&lt;hr size=&quot;1&quot; style=&quot;border-style:solid;&quot;&gt;&lt;div&gt;&lt;b&gt;&lt;font face=&quot;Verdana&quot;&gt;+loadProducers()&lt;/font&gt;&lt;/b&gt;&lt;/div&gt;&lt;div&gt;&lt;b&gt;&lt;font face=&quot;Verdana&quot;&gt;+loadIngredients()&lt;/font&gt;&lt;/b&gt;&lt;/div&gt;&lt;div&gt;&lt;b&gt;&lt;font face=&quot;Verdana&quot;&gt;+selectProducer(Producer)&lt;/font&gt;&lt;/b&gt;&lt;/div&gt;&lt;div&gt;&lt;b&gt;&lt;font face=&quot;Verdana&quot;&gt;+addIngredient(Ingredient, int)&lt;/font&gt;&lt;/b&gt;&lt;/div&gt;&lt;div&gt;&lt;b&gt;&lt;font face=&quot;Verdana&quot;&gt;+removeIngredient(Ingredient)&lt;/font&gt;&lt;/b&gt;&lt;/div&gt;&lt;div&gt;&lt;b&gt;&lt;font face=&quot;Verdana&quot;&gt;+confirmOrder()&lt;/font&gt;&lt;/b&gt;&lt;/div&gt;&lt;div&gt;&lt;b&gt;&lt;font face=&quot;Verdana&quot;&gt;+cancelOrder()&lt;/font&gt;&lt;/b&gt;&lt;/div&gt;&lt;div&gt;&lt;b style=&quot;&quot;&gt;&lt;font face=&quot;Verdana&quot;&gt;+showConfirmationScreen()&lt;/font&gt;&lt;/b&gt;&lt;/div&gt;" style="verticalAlign=top;align=left;overflow=fill;html=1;whiteSpace=wrap;strokeColor=light-dark(#000000,#006666);fillColor=light-dark(#006666,#000000);" parent="WIyWlLk6GJQsqaUBKTNV-1" vertex="1">
          <mxGeometry x="110" y="150" width="220" height="280" as="geometry" />
        </mxCell>
        <mxCell id="gb8vuSNpvKbIjROX9ZK6-0" value="&lt;p style=&quot;margin:0px;margin-top:4px;text-align:center;&quot;&gt;&lt;font face=&quot;Verdana&quot;&gt;&lt;b&gt;Ingredients&lt;/b&gt;&lt;/font&gt;&lt;/p&gt;&lt;hr size=&quot;1&quot; style=&quot;border-style:solid;&quot;&gt;&lt;p style=&quot;margin:0px;margin-left:4px;&quot;&gt;&lt;/p&gt;&lt;b&gt;&lt;font face=&quot;Verdana&quot;&gt;+ingredientId:int&lt;br&gt;-Name:String&lt;br&gt;&lt;/font&gt;&lt;/b&gt;&lt;p style=&quot;margin:0px;margin-left:4px;&quot;&gt;&lt;b style=&quot;background-color: transparent; color: light-dark(rgb(0, 0, 0), rgb(255, 255, 255));&quot;&gt;&lt;font face=&quot;Verdana&quot;&gt;-quantity:int&lt;/font&gt;&lt;/b&gt;&lt;/p&gt;" style="verticalAlign=top;align=left;overflow=fill;html=1;whiteSpace=wrap;strokeColor=light-dark(#000000,#006666);fillColor=light-dark(#006666,#000000);" parent="WIyWlLk6GJQsqaUBKTNV-1" vertex="1">
          <mxGeometry x="560" y="1060" width="160" height="90" as="geometry" />
        </mxCell>
      </root>
    </mxGraphModel>
  </diagram>
</mxfile>
